<?xml version="1.0" encoding="UTF-8" standalone="no"?>
<!-- Uploaded to: SVG Repo, www.svgrepo.com, Generator: SVG Repo Mixer Tools -->

<svg
   width="699.75311"
   height="700.41193"
   viewBox="0 0 20.992593 21.012358"
   fill="none"
   version="1.1"
   id="svg1"
   sodipodi:docname="phone.svg"
   inkscape:version="1.3.2 (091e20e, 2023-11-25)"
   xmlns:inkscape="http://www.inkscape.org/namespaces/inkscape"
   xmlns:sodipodi="http://sodipodi.sourceforge.net/DTD/sodipodi-0.dtd"
   xmlns="http://www.w3.org/2000/svg"
   xmlns:svg="http://www.w3.org/2000/svg">
  <defs
     id="defs1" />
  <sodipodi:namedview
     id="namedview1"
     pagecolor="#ffffff"
     bordercolor="#666666"
     borderopacity="1.0"
     inkscape:showpageshadow="2"
     inkscape:pageopacity="0.0"
     inkscape:pagecheckerboard="0"
     inkscape:deskcolor="#d1d1d1"
     inkscape:zoom="0.295"
     inkscape:cx="357.62712"
     inkscape:cy="355.9322"
     inkscape:window-width="1312"
     inkscape:window-height="449"
     inkscape:window-x="0"
     inkscape:window-y="25"
     inkscape:window-maximized="0"
     inkscape:current-layer="svg1" />
  <path
     fill-rule="evenodd"
     clip-rule="evenodd"
     d="m 7.218207,2.5700878 c -0.67167,-0.49513 -1.12398,-0.60692 -1.36668,-0.55955 -1.00125,0.1954 -1.59477,0.58517 -2.39889,1.38928 -1.09762,1.0976 -1.63019,1.91717 -1.39824,3.15979 0.26706,1.43067 1.57176,3.6141902 5.16778,7.2102902 3.59579,3.5957 5.79249,4.9142 7.23119,5.1868 0.6667,0.1264 1.1744,0.0276 1.63,-0.1968 0.4871,-0.2399 0.9561,-0.6437 1.494,-1.2051 0.4771,-0.4979 0.7666,-0.8454 0.9692,-1.1873 0.193,-0.3257 0.3298,-0.6858 0.4355,-1.2267 0.0474,-0.2427 -0.0644,-0.695 -0.5596,-1.3668 -0.4619,-0.6265 -1.1135,-1.2487 -1.7159,-1.7566 -0.3975,-0.3352 -1.0125,-0.3566 -1.5093,0.0153 l -1.5183,1.1367 c -1.3696,1.0252 -3.2833,0.8784 -4.4916,-0.33 l -1.03477,-1.0347 c -1.20831,-1.2083 -1.35517,-3.1220002 -0.32993,-4.4915902 l 1.1366,-1.51828 c 0.3719,-0.49681 0.3505,-1.11181 0.0153,-1.50932 -0.50784,-0.60226 -1.12997,-1.25368 -1.75636,-1.71542 z m 1.18673,-1.60987001 c 0.80943,0.59668001 1.54843,1.38356001 2.09863,2.03598001 1.0028,1.18922 0.921,2.84272 0.0568,3.9972 l -1.1366,1.51828 c -0.4235,0.56562 -0.3687,1.36702 0.143,1.8788202 l 1.0348,1.0347 c 0.5118,0.5118 1.3131,0.5665 1.8788,0.1431 l 1.5183,-1.1366 c 1.1545,-0.8642002 2.8079,-0.9461002 3.9971,0.0566 0.6526,0.5502 1.4397,1.2893 2.0365,2.0989 0.5634,0.7643 1.1303,1.8227 0.9127,2.9371 -0.1398,0.7155 -0.3451,1.3012 -0.6778,1.8627 -0.3231,0.5454 -0.7429,1.0268 -1.2457,1.5515 -0.5826,0.6081 -1.2469,1.2179 -2.0544,1.6156 -0.8389,0.4132 -1.787,0.576 -2.8862,0.3677 -2.093,-0.3967 -4.6678,-2.1327 -8.27291,-5.7377 -3.60481,-3.6049 -5.32967995,-6.1687002 -5.71959995,-8.2575002 -0.425011,-2.27689 0.75807,-3.74901 1.95006995,-4.941 0.98459,-0.98458 1.9182,-1.64299001 3.43002,-1.93803001 1.11412,-0.21743 2.17234,0.34935 2.93649,0.91265 z"
     fill="#4c4c4c"
     id="path1" />
</svg>
